<?xml version="1.0" encoding="UTF-8" standalone="no"?>
<!DOCTYPE svg PUBLIC "-//W3C//DTD SVG 1.1//EN" "http://www.w3.org/Graphics/SVG/1.1/DTD/svg11.dtd">
<svg width="100%" height="100%" viewBox="0 0 132 24" version="1.1" xmlns="http://www.w3.org/2000/svg" xmlns:xlink="http://www.w3.org/1999/xlink" xml:space="preserve" xmlns:serif="http://www.serif.com/" style="fill-rule:evenodd;clip-rule:evenodd;stroke-linejoin:round;stroke-miterlimit:2;">
    <g id="Artboard1" transform="matrix(1,0,0,0.239968,0,0)">
        <rect x="0" y="0" width="132" height="100" style="fill:none;"/>
        <clipPath id="_clip1">
            <rect x="0" y="0" width="132" height="100"/>
        </clipPath>
        <g clip-path="url(#_clip1)">
            <g transform="matrix(0.908378,0,0,3.78542,-11.7716,-86.7414)">
                <g transform="matrix(18,0,0,18,11.555,41.9879)">
                    <path d="M0.078,-0.714L0.078,0L0.173,0L0.173,-0.327L0.501,-0.327L0.501,-0.407L0.173,-0.407L0.173,-0.634L0.547,-0.634L0.547,-0.714L0.078,-0.714Z" style="fill:rgb(71,153,255);fill-rule:nonzero;"/>
                </g>
                <g transform="matrix(18,0,0,18,21.887,41.9879)">
                    <path d="M0.492,0L0.492,-0.517L0.407,-0.517L0.407,-0.225C0.407,-0.202 0.404,-0.18 0.398,-0.161C0.391,-0.141 0.382,-0.124 0.369,-0.109C0.356,-0.094 0.341,-0.083 0.322,-0.075C0.303,-0.067 0.28,-0.063 0.254,-0.063C0.221,-0.063 0.196,-0.072 0.177,-0.091C0.158,-0.11 0.149,-0.135 0.149,-0.167L0.149,-0.517L0.064,-0.517L0.064,-0.177C0.064,-0.149 0.067,-0.124 0.073,-0.101C0.078,-0.078 0.088,-0.058 0.102,-0.041C0.116,-0.024 0.134,-0.012 0.157,-0.003C0.18,0.007 0.208,0.011 0.242,0.011C0.28,0.011 0.313,0.003 0.341,-0.012C0.369,-0.027 0.392,-0.05 0.41,-0.082L0.412,-0.082L0.412,0L0.492,0Z" style="fill:rgb(71,153,255);fill-rule:nonzero;"/>
                </g>
                <g transform="matrix(18,0,0,18,31.895,41.9879)">
                    <path d="M0.116,-0.163L0.031,-0.163C0.032,-0.131 0.039,-0.104 0.051,-0.082C0.063,-0.059 0.079,-0.041 0.099,-0.028C0.119,-0.014 0.142,-0.004 0.168,0.002C0.194,0.008 0.221,0.011 0.25,0.011C0.276,0.011 0.302,0.008 0.329,0.004C0.355,-0.002 0.379,-0.01 0.4,-0.023C0.421,-0.036 0.438,-0.052 0.451,-0.073C0.464,-0.094 0.47,-0.12 0.47,-0.151C0.47,-0.176 0.465,-0.196 0.456,-0.213C0.446,-0.23 0.433,-0.244 0.418,-0.255C0.402,-0.266 0.384,-0.274 0.364,-0.281C0.343,-0.288 0.322,-0.293 0.301,-0.298C0.281,-0.303 0.261,-0.307 0.241,-0.312C0.221,-0.316 0.203,-0.321 0.187,-0.328C0.171,-0.334 0.158,-0.342 0.148,-0.352C0.137,-0.361 0.132,-0.373 0.132,-0.388C0.132,-0.401 0.135,-0.412 0.142,-0.421C0.149,-0.429 0.157,-0.436 0.168,-0.441C0.179,-0.446 0.191,-0.449 0.204,-0.451C0.217,-0.453 0.229,-0.454 0.242,-0.454C0.256,-0.454 0.27,-0.452 0.284,-0.45C0.297,-0.447 0.31,-0.442 0.321,-0.435C0.332,-0.428 0.342,-0.42 0.349,-0.409C0.356,-0.398 0.361,-0.384 0.362,-0.367L0.447,-0.367C0.445,-0.398 0.438,-0.425 0.427,-0.446C0.416,-0.467 0.401,-0.483 0.382,-0.496C0.363,-0.508 0.341,-0.517 0.316,-0.522C0.291,-0.527 0.264,-0.529 0.235,-0.529C0.212,-0.529 0.19,-0.526 0.167,-0.521C0.143,-0.515 0.123,-0.506 0.105,-0.495C0.086,-0.483 0.071,-0.468 0.06,-0.449C0.048,-0.43 0.042,-0.408 0.042,-0.382C0.042,-0.349 0.05,-0.323 0.067,-0.304C0.084,-0.285 0.105,-0.271 0.13,-0.261C0.155,-0.25 0.182,-0.242 0.211,-0.237C0.24,-0.231 0.268,-0.225 0.293,-0.218C0.318,-0.211 0.338,-0.201 0.355,-0.19C0.372,-0.179 0.38,-0.162 0.38,-0.14C0.38,-0.124 0.376,-0.111 0.368,-0.101C0.36,-0.09 0.35,-0.082 0.338,-0.077C0.325,-0.072 0.312,-0.068 0.297,-0.066C0.282,-0.064 0.268,-0.063 0.255,-0.063C0.238,-0.063 0.221,-0.065 0.205,-0.068C0.188,-0.071 0.173,-0.077 0.161,-0.085C0.148,-0.092 0.137,-0.102 0.129,-0.116C0.121,-0.129 0.117,-0.144 0.116,-0.163Z" style="fill:rgb(71,153,255);fill-rule:nonzero;"/>
                </g>
                <g transform="matrix(18,0,0,18,40.895,41.9879)">
                    <path d="M0.423,-0.308L0.126,-0.308C0.127,-0.328 0.132,-0.347 0.139,-0.365C0.146,-0.382 0.156,-0.398 0.169,-0.411C0.182,-0.424 0.197,-0.435 0.215,-0.443C0.232,-0.45 0.252,-0.454 0.274,-0.454C0.295,-0.454 0.315,-0.45 0.333,-0.443C0.35,-0.435 0.366,-0.425 0.379,-0.412C0.392,-0.399 0.402,-0.383 0.41,-0.365C0.417,-0.347 0.422,-0.328 0.423,-0.308ZM0.505,-0.164L0.421,-0.164C0.414,-0.13 0.399,-0.105 0.376,-0.088C0.353,-0.071 0.323,-0.063 0.287,-0.063C0.259,-0.063 0.235,-0.068 0.214,-0.077C0.193,-0.086 0.176,-0.099 0.163,-0.115C0.15,-0.13 0.14,-0.148 0.134,-0.169C0.128,-0.189 0.125,-0.21 0.126,-0.233L0.513,-0.233C0.514,-0.264 0.511,-0.297 0.505,-0.332C0.498,-0.367 0.485,-0.399 0.467,-0.428C0.448,-0.457 0.424,-0.482 0.394,-0.501C0.363,-0.52 0.325,-0.529 0.279,-0.529C0.244,-0.529 0.211,-0.522 0.182,-0.509C0.152,-0.496 0.126,-0.477 0.105,-0.453C0.083,-0.429 0.066,-0.401 0.054,-0.368C0.042,-0.335 0.036,-0.299 0.036,-0.26C0.037,-0.221 0.043,-0.184 0.054,-0.151C0.064,-0.118 0.079,-0.089 0.1,-0.065C0.121,-0.041 0.146,-0.022 0.177,-0.009C0.207,0.004 0.243,0.011 0.284,0.011C0.343,0.011 0.391,-0.004 0.43,-0.033C0.469,-0.062 0.494,-0.106 0.505,-0.164Z" style="fill:rgb(71,153,255);fill-rule:nonzero;"/>
                </g>
                <g transform="matrix(18,0,0,18,50.561,41.9879)">
                    <path d="M0.126,-0.254C0.126,-0.279 0.129,-0.304 0.134,-0.328C0.139,-0.352 0.148,-0.373 0.16,-0.392C0.172,-0.411 0.188,-0.426 0.208,-0.437C0.228,-0.448 0.252,-0.454 0.281,-0.454C0.31,-0.454 0.335,-0.448 0.356,-0.438C0.377,-0.427 0.394,-0.412 0.407,-0.394C0.42,-0.376 0.429,-0.355 0.435,-0.332C0.441,-0.308 0.444,-0.283 0.444,-0.258C0.444,-0.234 0.441,-0.21 0.436,-0.187C0.43,-0.164 0.421,-0.143 0.408,-0.125C0.395,-0.106 0.379,-0.091 0.359,-0.08C0.339,-0.069 0.315,-0.063 0.286,-0.063C0.259,-0.063 0.235,-0.068 0.215,-0.079C0.194,-0.09 0.178,-0.104 0.165,-0.122C0.152,-0.14 0.142,-0.161 0.136,-0.184C0.129,-0.206 0.126,-0.23 0.126,-0.254ZM0.526,0L0.526,-0.714L0.441,-0.714L0.441,-0.448L0.439,-0.448C0.43,-0.463 0.418,-0.476 0.405,-0.487C0.391,-0.497 0.376,-0.505 0.361,-0.512C0.346,-0.518 0.33,-0.522 0.315,-0.525C0.3,-0.528 0.285,-0.529 0.272,-0.529C0.233,-0.529 0.198,-0.522 0.169,-0.508C0.139,-0.493 0.114,-0.474 0.095,-0.45C0.075,-0.425 0.06,-0.397 0.051,-0.364C0.041,-0.331 0.036,-0.297 0.036,-0.26C0.036,-0.223 0.041,-0.189 0.051,-0.156C0.061,-0.123 0.076,-0.095 0.096,-0.07C0.115,-0.045 0.14,-0.026 0.17,-0.011C0.199,0.004 0.234,0.011 0.274,0.011C0.31,0.011 0.343,0.005 0.373,-0.008C0.403,-0.021 0.425,-0.041 0.439,-0.07L0.441,-0.07L0.441,0L0.526,0Z" style="fill:rgb(71,153,255);fill-rule:nonzero;"/>
                </g>
                <g transform="matrix(18,0,0,18,61.235,41.9879)">
                    <path d="M0.036,-0.357C0.036,-0.409 0.044,-0.458 0.059,-0.504C0.074,-0.549 0.096,-0.589 0.126,-0.623C0.155,-0.656 0.19,-0.683 0.233,-0.702C0.275,-0.721 0.323,-0.731 0.376,-0.731C0.418,-0.731 0.454,-0.725 0.485,-0.715C0.516,-0.704 0.542,-0.69 0.563,-0.674C0.584,-0.657 0.601,-0.639 0.614,-0.62C0.627,-0.601 0.638,-0.583 0.645,-0.566C0.652,-0.549 0.656,-0.534 0.659,-0.522C0.662,-0.509 0.663,-0.502 0.663,-0.501L0.619,-0.501C0.614,-0.531 0.605,-0.558 0.59,-0.582C0.575,-0.605 0.557,-0.625 0.535,-0.642C0.513,-0.659 0.489,-0.671 0.462,-0.68C0.435,-0.689 0.406,-0.693 0.376,-0.693C0.329,-0.693 0.288,-0.684 0.251,-0.666C0.214,-0.648 0.183,-0.624 0.158,-0.594C0.133,-0.563 0.113,-0.528 0.1,-0.487C0.087,-0.446 0.08,-0.403 0.08,-0.357C0.08,-0.311 0.087,-0.268 0.1,-0.227C0.113,-0.186 0.133,-0.151 0.158,-0.121C0.183,-0.09 0.214,-0.066 0.251,-0.048C0.288,-0.03 0.329,-0.021 0.376,-0.021C0.411,-0.021 0.443,-0.028 0.474,-0.043C0.504,-0.057 0.53,-0.076 0.553,-0.1C0.576,-0.123 0.594,-0.151 0.608,-0.182C0.621,-0.213 0.629,-0.245 0.631,-0.278L0.675,-0.278C0.671,-0.235 0.661,-0.196 0.644,-0.16C0.626,-0.124 0.605,-0.093 0.579,-0.067C0.552,-0.04 0.522,-0.02 0.487,-0.005C0.452,0.01 0.415,0.017 0.376,0.017C0.323,0.017 0.275,0.007 0.233,-0.012C0.19,-0.031 0.155,-0.058 0.126,-0.092C0.096,-0.125 0.074,-0.165 0.059,-0.211C0.044,-0.256 0.036,-0.305 0.036,-0.357Z" style="fill:rgb(71,153,255);fill-rule:nonzero;"/>
                </g>
                <g transform="matrix(18,0,0,18,73.907,41.9879)">
                    <path d="M0.032,-0.257C0.032,-0.294 0.037,-0.328 0.048,-0.361C0.058,-0.393 0.073,-0.421 0.093,-0.446C0.113,-0.471 0.138,-0.49 0.167,-0.505C0.196,-0.519 0.23,-0.526 0.268,-0.526C0.306,-0.526 0.34,-0.519 0.369,-0.505C0.398,-0.49 0.423,-0.471 0.443,-0.446C0.463,-0.421 0.478,-0.393 0.489,-0.361C0.499,-0.328 0.504,-0.294 0.504,-0.257C0.504,-0.22 0.499,-0.186 0.489,-0.153C0.478,-0.12 0.463,-0.092 0.443,-0.068C0.423,-0.043 0.398,-0.024 0.369,-0.01C0.34,0.005 0.306,0.012 0.268,0.012C0.23,0.012 0.196,0.005 0.167,-0.01C0.138,-0.024 0.113,-0.043 0.093,-0.068C0.073,-0.092 0.058,-0.12 0.048,-0.153C0.037,-0.186 0.032,-0.22 0.032,-0.257ZM0.07,-0.257C0.07,-0.226 0.074,-0.197 0.083,-0.169C0.092,-0.14 0.104,-0.115 0.121,-0.093C0.138,-0.071 0.158,-0.054 0.183,-0.041C0.208,-0.028 0.236,-0.021 0.268,-0.021C0.3,-0.021 0.328,-0.028 0.353,-0.041C0.378,-0.054 0.398,-0.071 0.415,-0.093C0.432,-0.115 0.444,-0.14 0.453,-0.169C0.462,-0.197 0.466,-0.226 0.466,-0.257C0.466,-0.288 0.462,-0.317 0.453,-0.346C0.444,-0.374 0.432,-0.399 0.415,-0.421C0.398,-0.443 0.378,-0.46 0.353,-0.474C0.328,-0.487 0.3,-0.493 0.268,-0.493C0.236,-0.493 0.208,-0.487 0.183,-0.474C0.158,-0.46 0.138,-0.443 0.121,-0.421C0.104,-0.399 0.092,-0.374 0.083,-0.346C0.074,-0.317 0.07,-0.288 0.07,-0.257Z" style="fill:rgb(71,153,255);fill-rule:nonzero;"/>
                </g>
                <g transform="matrix(18,0,0,18,83.573,41.9879)">
                    <path d="M0.057,-0.514L0.095,-0.514L0.095,-0.409L0.097,-0.409C0.101,-0.425 0.108,-0.44 0.118,-0.455C0.128,-0.469 0.14,-0.481 0.155,-0.492C0.169,-0.503 0.185,-0.511 0.203,-0.517C0.22,-0.523 0.239,-0.526 0.258,-0.526C0.283,-0.526 0.304,-0.523 0.322,-0.517C0.34,-0.51 0.355,-0.502 0.368,-0.492C0.381,-0.481 0.391,-0.47 0.398,-0.457C0.405,-0.444 0.41,-0.43 0.413,-0.417L0.415,-0.417C0.43,-0.453 0.451,-0.48 0.477,-0.499C0.502,-0.517 0.536,-0.526 0.578,-0.526C0.601,-0.526 0.623,-0.523 0.643,-0.516C0.662,-0.509 0.679,-0.498 0.694,-0.484C0.708,-0.469 0.719,-0.451 0.727,-0.429C0.735,-0.407 0.739,-0.381 0.739,-0.351L0.739,0L0.701,0L0.701,-0.352C0.701,-0.385 0.696,-0.41 0.686,-0.429C0.676,-0.448 0.664,-0.462 0.651,-0.472C0.637,-0.481 0.623,-0.487 0.61,-0.49C0.596,-0.492 0.585,-0.493 0.578,-0.493C0.555,-0.493 0.533,-0.489 0.514,-0.481C0.494,-0.473 0.477,-0.461 0.463,-0.445C0.448,-0.429 0.437,-0.409 0.429,-0.386C0.421,-0.362 0.417,-0.335 0.417,-0.304L0.417,0L0.379,0L0.379,-0.352C0.379,-0.384 0.374,-0.409 0.365,-0.429C0.355,-0.448 0.343,-0.462 0.331,-0.471C0.318,-0.48 0.304,-0.486 0.291,-0.489C0.277,-0.492 0.266,-0.493 0.258,-0.493C0.24,-0.493 0.221,-0.489 0.202,-0.482C0.183,-0.475 0.165,-0.463 0.149,-0.448C0.133,-0.433 0.12,-0.413 0.11,-0.389C0.1,-0.365 0.095,-0.337 0.095,-0.304L0.095,0L0.057,0L0.057,-0.514Z" style="fill:rgb(71,153,255);fill-rule:nonzero;"/>
                </g>
                <g transform="matrix(18,0,0,18,97.901,41.9879)">
                    <path d="M0.103,-0.396L0.105,-0.396C0.109,-0.409 0.116,-0.423 0.125,-0.438C0.134,-0.453 0.147,-0.468 0.162,-0.481C0.177,-0.494 0.196,-0.504 0.218,-0.513C0.239,-0.522 0.264,-0.526 0.292,-0.526C0.331,-0.526 0.366,-0.519 0.395,-0.504C0.424,-0.489 0.448,-0.47 0.467,-0.445C0.486,-0.42 0.5,-0.392 0.509,-0.359C0.518,-0.326 0.523,-0.292 0.523,-0.256C0.523,-0.217 0.518,-0.181 0.509,-0.148C0.5,-0.115 0.486,-0.087 0.467,-0.064C0.448,-0.04 0.424,-0.021 0.395,-0.008C0.366,0.005 0.331,0.012 0.292,0.012C0.249,0.012 0.211,0.003 0.178,-0.016C0.145,-0.035 0.12,-0.065 0.105,-0.107L0.103,-0.107L0.103,0.184L0.065,0.184L0.065,-0.514L0.103,-0.514L0.103,-0.396ZM0.292,-0.021C0.325,-0.021 0.354,-0.027 0.379,-0.04C0.403,-0.053 0.423,-0.07 0.439,-0.091C0.454,-0.112 0.466,-0.137 0.474,-0.166C0.481,-0.194 0.485,-0.224 0.485,-0.256C0.485,-0.285 0.481,-0.314 0.474,-0.343C0.467,-0.371 0.455,-0.396 0.44,-0.419C0.425,-0.441 0.405,-0.459 0.381,-0.473C0.356,-0.486 0.327,-0.493 0.292,-0.493C0.258,-0.493 0.229,-0.486 0.205,-0.473C0.181,-0.46 0.162,-0.442 0.147,-0.42C0.131,-0.398 0.121,-0.373 0.114,-0.345C0.107,-0.316 0.104,-0.287 0.104,-0.256C0.104,-0.225 0.107,-0.196 0.113,-0.168C0.119,-0.139 0.129,-0.114 0.144,-0.093C0.158,-0.071 0.177,-0.054 0.202,-0.041C0.226,-0.028 0.256,-0.021 0.292,-0.021Z" style="fill:rgb(71,153,255);fill-rule:nonzero;"/>
                </g>
                <g transform="matrix(18,0,0,18,107.909,41.9879)">
                    <path d="M0.032,-0.257C0.032,-0.294 0.037,-0.328 0.048,-0.361C0.058,-0.393 0.073,-0.421 0.093,-0.446C0.113,-0.471 0.138,-0.49 0.167,-0.505C0.196,-0.519 0.23,-0.526 0.268,-0.526C0.306,-0.526 0.34,-0.519 0.369,-0.505C0.398,-0.49 0.423,-0.471 0.443,-0.446C0.463,-0.421 0.478,-0.393 0.489,-0.361C0.499,-0.328 0.504,-0.294 0.504,-0.257C0.504,-0.22 0.499,-0.186 0.489,-0.153C0.478,-0.12 0.463,-0.092 0.443,-0.068C0.423,-0.043 0.398,-0.024 0.369,-0.01C0.34,0.005 0.306,0.012 0.268,0.012C0.23,0.012 0.196,0.005 0.167,-0.01C0.138,-0.024 0.113,-0.043 0.093,-0.068C0.073,-0.092 0.058,-0.12 0.048,-0.153C0.037,-0.186 0.032,-0.22 0.032,-0.257ZM0.07,-0.257C0.07,-0.226 0.074,-0.197 0.083,-0.169C0.092,-0.14 0.104,-0.115 0.121,-0.093C0.138,-0.071 0.158,-0.054 0.183,-0.041C0.208,-0.028 0.236,-0.021 0.268,-0.021C0.3,-0.021 0.328,-0.028 0.353,-0.041C0.378,-0.054 0.398,-0.071 0.415,-0.093C0.432,-0.115 0.444,-0.14 0.453,-0.169C0.462,-0.197 0.466,-0.226 0.466,-0.257C0.466,-0.288 0.462,-0.317 0.453,-0.346C0.444,-0.374 0.432,-0.399 0.415,-0.421C0.398,-0.443 0.378,-0.46 0.353,-0.474C0.328,-0.487 0.3,-0.493 0.268,-0.493C0.236,-0.493 0.208,-0.487 0.183,-0.474C0.158,-0.46 0.138,-0.443 0.121,-0.421C0.104,-0.399 0.092,-0.374 0.083,-0.346C0.074,-0.317 0.07,-0.288 0.07,-0.257Z" style="fill:rgb(71,153,255);fill-rule:nonzero;"/>
                </g>
                <g transform="matrix(18,0,0,18,117.575,41.9879)">
                    <path d="M0.056,-0.514L0.094,-0.514L0.094,-0.404L0.096,-0.404C0.103,-0.423 0.112,-0.44 0.125,-0.456C0.137,-0.471 0.151,-0.483 0.168,-0.494C0.184,-0.505 0.202,-0.513 0.221,-0.518C0.24,-0.523 0.26,-0.526 0.28,-0.526C0.31,-0.526 0.335,-0.522 0.357,-0.515C0.378,-0.508 0.395,-0.498 0.408,-0.486C0.421,-0.474 0.432,-0.46 0.44,-0.446C0.447,-0.431 0.453,-0.415 0.456,-0.4C0.459,-0.385 0.461,-0.37 0.462,-0.356C0.463,-0.341 0.463,-0.329 0.463,-0.318L0.463,0L0.425,0L0.425,-0.325C0.425,-0.338 0.424,-0.354 0.422,-0.373C0.42,-0.392 0.414,-0.411 0.405,-0.429C0.395,-0.446 0.38,-0.461 0.361,-0.474C0.341,-0.487 0.314,-0.493 0.279,-0.493C0.25,-0.493 0.224,-0.488 0.201,-0.477C0.178,-0.466 0.159,-0.452 0.143,-0.433C0.127,-0.413 0.115,-0.391 0.107,-0.365C0.098,-0.338 0.094,-0.309 0.094,-0.278L0.094,0L0.056,0L0.056,-0.514Z" style="fill:rgb(71,153,255);fill-rule:nonzero;"/>
                </g>
                <g transform="matrix(18,0,0,18,126.917,41.9879)">
                    <path d="M0.071,-0.252L0.071,-0.246C0.071,-0.216 0.075,-0.187 0.083,-0.16C0.091,-0.133 0.103,-0.109 0.119,-0.088C0.134,-0.067 0.154,-0.051 0.178,-0.039C0.201,-0.027 0.229,-0.021 0.26,-0.021C0.311,-0.021 0.352,-0.035 0.382,-0.062C0.412,-0.089 0.433,-0.126 0.444,-0.174L0.482,-0.174C0.471,-0.114 0.446,-0.068 0.409,-0.036C0.371,-0.004 0.321,0.012 0.259,0.012C0.221,0.012 0.188,0.005 0.16,-0.009C0.131,-0.022 0.108,-0.041 0.089,-0.065C0.069,-0.088 0.055,-0.116 0.046,-0.149C0.037,-0.181 0.032,-0.216 0.032,-0.253C0.032,-0.289 0.037,-0.323 0.047,-0.357C0.056,-0.39 0.071,-0.419 0.09,-0.444C0.109,-0.468 0.134,-0.489 0.163,-0.504C0.192,-0.519 0.226,-0.526 0.265,-0.526C0.301,-0.526 0.333,-0.519 0.361,-0.506C0.388,-0.493 0.411,-0.474 0.43,-0.452C0.449,-0.428 0.463,-0.402 0.473,-0.372C0.482,-0.341 0.487,-0.309 0.487,-0.274C0.487,-0.271 0.487,-0.267 0.487,-0.263C0.486,-0.258 0.486,-0.255 0.486,-0.252L0.071,-0.252ZM0.448,-0.285C0.447,-0.313 0.442,-0.339 0.434,-0.365C0.426,-0.39 0.414,-0.412 0.399,-0.431C0.383,-0.45 0.364,-0.465 0.342,-0.476C0.319,-0.487 0.294,-0.493 0.265,-0.493C0.234,-0.493 0.207,-0.487 0.184,-0.476C0.161,-0.464 0.141,-0.448 0.125,-0.43C0.109,-0.411 0.097,-0.388 0.088,-0.363C0.079,-0.338 0.074,-0.312 0.072,-0.285L0.448,-0.285Z" style="fill:rgb(71,153,255);fill-rule:nonzero;"/>
                </g>
                <g transform="matrix(18,0,0,18,136.259,41.9879)">
                    <path d="M0.056,-0.514L0.094,-0.514L0.094,-0.404L0.096,-0.404C0.103,-0.423 0.112,-0.44 0.125,-0.456C0.137,-0.471 0.151,-0.483 0.168,-0.494C0.184,-0.505 0.202,-0.513 0.221,-0.518C0.24,-0.523 0.26,-0.526 0.28,-0.526C0.31,-0.526 0.335,-0.522 0.357,-0.515C0.378,-0.508 0.395,-0.498 0.408,-0.486C0.421,-0.474 0.432,-0.46 0.44,-0.446C0.447,-0.431 0.453,-0.415 0.456,-0.4C0.459,-0.385 0.461,-0.37 0.462,-0.356C0.463,-0.341 0.463,-0.329 0.463,-0.318L0.463,0L0.425,0L0.425,-0.325C0.425,-0.338 0.424,-0.354 0.422,-0.373C0.42,-0.392 0.414,-0.411 0.405,-0.429C0.395,-0.446 0.38,-0.461 0.361,-0.474C0.341,-0.487 0.314,-0.493 0.279,-0.493C0.25,-0.493 0.224,-0.488 0.201,-0.477C0.178,-0.466 0.159,-0.452 0.143,-0.433C0.127,-0.413 0.115,-0.391 0.107,-0.365C0.098,-0.338 0.094,-0.309 0.094,-0.278L0.094,0L0.056,0L0.056,-0.514Z" style="fill:rgb(71,153,255);fill-rule:nonzero;"/>
                </g>
                <g transform="matrix(18,0,0,18,145.601,41.9879)">
                    <path d="M0.245,-0.481L0.133,-0.481L0.133,-0.122C0.133,-0.101 0.135,-0.085 0.14,-0.073C0.145,-0.061 0.152,-0.052 0.162,-0.046C0.171,-0.039 0.183,-0.035 0.197,-0.034C0.21,-0.033 0.226,-0.032 0.244,-0.033L0.244,0C0.225,0.001 0.206,0.001 0.188,-0.001C0.169,-0.002 0.153,-0.007 0.139,-0.016C0.125,-0.024 0.114,-0.036 0.106,-0.053C0.097,-0.07 0.094,-0.093 0.095,-0.122L0.095,-0.481L0,-0.481L0,-0.514L0.095,-0.514L0.095,-0.674L0.133,-0.674L0.133,-0.514L0.245,-0.514L0.245,-0.481Z" style="fill:rgb(71,153,255);fill-rule:nonzero;"/>
                </g>
                <g transform="matrix(18,0,0,18,150.263,41.9879)">
                    <path d="M0.074,-0.171C0.075,-0.147 0.081,-0.126 0.09,-0.108C0.099,-0.089 0.112,-0.074 0.127,-0.061C0.141,-0.048 0.159,-0.038 0.179,-0.031C0.199,-0.024 0.221,-0.021 0.244,-0.021C0.261,-0.021 0.279,-0.023 0.298,-0.026C0.317,-0.028 0.334,-0.034 0.351,-0.042C0.367,-0.05 0.38,-0.061 0.391,-0.076C0.402,-0.09 0.407,-0.108 0.407,-0.13C0.407,-0.159 0.398,-0.18 0.381,-0.195C0.364,-0.21 0.342,-0.221 0.316,-0.229C0.289,-0.237 0.261,-0.243 0.231,-0.249C0.2,-0.254 0.172,-0.261 0.146,-0.271C0.119,-0.281 0.097,-0.295 0.08,-0.314C0.063,-0.332 0.054,-0.359 0.054,-0.394C0.054,-0.419 0.06,-0.44 0.071,-0.458C0.082,-0.474 0.097,-0.488 0.115,-0.498C0.132,-0.508 0.152,-0.515 0.174,-0.52C0.196,-0.524 0.218,-0.526 0.24,-0.526C0.267,-0.526 0.292,-0.523 0.315,-0.517C0.338,-0.511 0.359,-0.501 0.376,-0.488C0.393,-0.475 0.406,-0.458 0.416,-0.437C0.425,-0.416 0.43,-0.391 0.43,-0.362L0.392,-0.362C0.392,-0.385 0.388,-0.405 0.381,-0.422C0.373,-0.439 0.362,-0.452 0.349,-0.463C0.335,-0.473 0.319,-0.481 0.3,-0.486C0.281,-0.491 0.261,-0.493 0.24,-0.493C0.223,-0.493 0.205,-0.491 0.188,-0.488C0.17,-0.485 0.154,-0.479 0.14,-0.471C0.126,-0.463 0.115,-0.453 0.106,-0.44C0.096,-0.427 0.092,-0.412 0.092,-0.394C0.092,-0.373 0.097,-0.357 0.107,-0.344C0.117,-0.331 0.13,-0.321 0.147,-0.314C0.163,-0.306 0.181,-0.3 0.202,-0.295C0.222,-0.29 0.242,-0.286 0.263,-0.281C0.288,-0.276 0.312,-0.271 0.335,-0.265C0.357,-0.258 0.376,-0.25 0.393,-0.239C0.409,-0.228 0.422,-0.213 0.431,-0.196C0.44,-0.179 0.445,-0.157 0.445,-0.13C0.445,-0.102 0.439,-0.079 0.426,-0.061C0.413,-0.043 0.397,-0.029 0.378,-0.018C0.359,-0.007 0.337,0.001 0.314,0.006C0.29,0.01 0.267,0.012 0.244,0.012C0.215,0.012 0.188,0.008 0.163,0.001C0.137,-0.007 0.116,-0.019 0.097,-0.035C0.078,-0.05 0.064,-0.069 0.053,-0.092C0.042,-0.115 0.037,-0.141 0.036,-0.171L0.074,-0.171Z" style="fill:rgb(71,153,255);fill-rule:nonzero;"/>
                </g>
            </g>
        </g>
    </g>
</svg>
