<?xml version="1.0" encoding="UTF-8" standalone="no"?><!DOCTYPE svg PUBLIC "-//W3C//DTD SVG 1.1//EN" "http://www.w3.org/Graphics/SVG/1.1/DTD/svg11.dtd"><svg width="100%" height="100%" viewBox="0 0 48 48" version="1.1" xmlns="http://www.w3.org/2000/svg" xmlns:xlink="http://www.w3.org/1999/xlink" xml:space="preserve" xmlns:serif="http://www.serif.com/" style="fill-rule:evenodd;clip-rule:evenodd;stroke-linejoin:round;stroke-miterlimit:2;"><path d="M36,48l-24,0c-6.623,0 -12,-5.377 -12,-12l0,-24c0,-6.623 5.377,-12 12,-12l24,0c6.623,0 12,5.377 12,12l0,24c0,6.623 -5.377,12 -12,12Zm-4,-40l-16,0c-4.416,0 -8,3.585 -8,8l0,16c0,4.415 3.585,8 8,8l16,0l0.052,0c4.391,-0.028 7.948,-3.602 7.948,-8l0,-16c0,-4.415 -3.584,-8 -8,-8Zm-11.473,17.904l12.25,-11.835l3.945,4.083l-16.332,15.779l-0.001,-0.001l-0.001,0.001l-9.11,-9.43l4.083,-3.944l5.166,5.347Z" style="fill:#bfbfbf;"/></svg>