<?xml version="1.0" encoding="UTF-8" standalone="no"?><!DOCTYPE svg PUBLIC "-//W3C//DTD SVG 1.1//EN" "http://www.w3.org/Graphics/SVG/1.1/DTD/svg11.dtd"><svg width="100%" height="100%" viewBox="0 0 48 48" version="1.1" xmlns="http://www.w3.org/2000/svg" xmlns:xlink="http://www.w3.org/1999/xlink" xml:space="preserve" xmlns:serif="http://www.serif.com/" style="fill-rule:evenodd;clip-rule:evenodd;stroke-linejoin:round;stroke-miterlimit:2;"><path d="M36,0c6.623,0 12,5.377 12,12l0,24c0,6.623 -5.377,12 -12,12l-24,0c-6.623,0 -12,-5.377 -12,-12l0,-24c0,-6.623 5.377,-12 12,-12l24,0Zm-4,8l-16,0c-4.415,0 -8,3.585 -8,8l0,16c0,4.415 3.585,8 8,8l16,0c4.415,0 8,-3.585 8,-8l0,-16c0,-4.415 -3.585,-8 -8,-8Z" style="fill:#bfbfbf;"/></svg>