<?xml version="1.0" encoding="UTF-8" standalone="no"?><!DOCTYPE svg PUBLIC "-//W3C//DTD SVG 1.1//EN" "http://www.w3.org/Graphics/SVG/1.1/DTD/svg11.dtd"><svg width="100%" height="100%" viewBox="0 0 48 51" version="1.1" xmlns="http://www.w3.org/2000/svg" xmlns:xlink="http://www.w3.org/1999/xlink" xml:space="preserve" xmlns:serif="http://www.serif.com/" style="fill-rule:evenodd;clip-rule:evenodd;stroke-linejoin:round;stroke-miterlimit:2;"><path d="M13.36,12.086l-6.633,0c1.869,-4.989 5.318,-9.192 10.813,-11.075c2.141,-0.733 4.415,-1.021 6.69,-1.011c5.289,0.077 10.49,2.17 13.837,6.458c3.583,4.588 4.97,10.535 4.96,16.307l4.973,0l0,28.116l-48,0l0,-28.116l37.033,0c0.025,-7.906 -3.94,-16.51 -12.521,-16.758c-3.316,-0.096 -6.814,0.868 -9.135,3.312c-0.797,0.839 -1.463,1.772 -2.017,2.767Zm12.89,32.795l0,-5.825c1.778,-0.845 3.009,-2.659 3.009,-4.758c0,-2.906 -2.359,-5.265 -5.265,-5.265c-2.906,0 -5.266,2.359 -5.266,5.265c0,2.099 1.231,3.913 3.01,4.758l0,5.825l4.512,0Z" style="fill:#bfbfbf;"/></svg>