<?xml version="1.0" encoding="UTF-8" standalone="no"?><!DOCTYPE svg PUBLIC "-//W3C//DTD SVG 1.1//EN" "http://www.w3.org/Graphics/SVG/1.1/DTD/svg11.dtd"><svg width="100%" height="100%" viewBox="0 0 48 49" version="1.1" xmlns="http://www.w3.org/2000/svg" xmlns:xlink="http://www.w3.org/1999/xlink" xml:space="preserve" xmlns:serif="http://www.serif.com/" style="fill-rule:evenodd;clip-rule:evenodd;stroke-linejoin:round;stroke-miterlimit:2;"><path d="M5.057,19.905c0.621,-8.07 4.263,-16.077 12.483,-18.894c2.141,-0.733 4.415,-1.021 6.69,-1.011c5.289,0.077 10.49,2.17 13.837,6.458c2.993,3.832 4.453,8.612 4.848,13.447l5.085,0l0,28.116l-48,0l0,-28.116l5.057,0Zm21.193,22.116l0,-5.825c1.778,-0.845 3.009,-2.659 3.009,-4.758c0,-2.906 -2.359,-5.265 -5.265,-5.265c-2.906,0 -5.266,2.359 -5.266,5.265c0,2.099 1.231,3.913 3.01,4.758l0,5.825l4.512,0Zm10.619,-22.116c-0.829,-6.99 -4.806,-13.68 -12.357,-13.898c-3.316,-0.096 -6.814,0.868 -9.135,3.312c-2.703,2.846 -3.909,6.769 -4.276,10.586l25.768,0Z" style="fill:#bfbfbf;"/></svg>