<?xml version="1.0" encoding="UTF-8" standalone="no"?><!DOCTYPE svg PUBLIC "-//W3C//DTD SVG 1.1//EN" "http://www.w3.org/Graphics/SVG/1.1/DTD/svg11.dtd"><svg width="100%" height="100%" viewBox="0 0 48 48" version="1.1" xmlns="http://www.w3.org/2000/svg" xmlns:xlink="http://www.w3.org/1999/xlink" xml:space="preserve" xmlns:serif="http://www.serif.com/" style="fill-rule:evenodd;clip-rule:evenodd;stroke-linejoin:round;stroke-miterlimit:2;"><path d="M24,0c13.246,0 24,10.754 24,24c0,13.246 -10.754,24 -24,24c-13.246,0 -24,-10.754 -24,-24c0,-13.246 10.754,-24 24,-24Zm0.215,8.001c9.003,0.171 16.932,8.999 15.638,18.235c-1.058,7.549 -8.185,13.764 -15.845,13.764c-10.662,0 -19.612,-12.816 -14.249,-23.282c2.636,-5.143 8.163,-8.605 14.042,-8.717c0.207,-0.001 0.207,-0.001 0.414,0Zm-9.697,10.073c-2.027,3.179 -2.671,7.245 -0.901,10.917c2.795,5.797 10.986,8.026 16.537,4.719l-15.636,-15.636Zm19.168,12.041c3.748,-6.614 0.068,-17.457 -9.528,-17.64c-0.15,-0.001 -0.15,-0.001 -0.3,0c-2.119,0.041 -4.13,0.769 -5.851,1.96l15.679,15.68Z" style="fill:#bfbfbf;"/></svg>