<?xml version="1.0" encoding="UTF-8" standalone="no"?><!DOCTYPE svg PUBLIC "-//W3C//DTD SVG 1.1//EN" "http://www.w3.org/Graphics/SVG/1.1/DTD/svg11.dtd"><svg width="100%" height="100%" viewBox="0 0 48 48" version="1.1" xmlns="http://www.w3.org/2000/svg" xmlns:xlink="http://www.w3.org/1999/xlink" xml:space="preserve" xmlns:serif="http://www.serif.com/" style="fill-rule:evenodd;clip-rule:evenodd;stroke-linejoin:round;stroke-miterlimit:2;"><path d="M31.027,36.684c-3.162,2.095 -6.953,3.316 -11.027,3.316c-11.038,0 -20,-8.962 -20,-20c0,-11.038 8.962,-20 20,-20c11.038,0 20,8.962 20,20c0,4.074 -1.221,7.865 -3.316,11.027l11.316,11.316l-5.657,5.657l-11.316,-11.316Zm-11.027,-28.684c6.623,0 12,5.377 12,12c0,6.623 -5.377,12 -12,12c-6.623,0 -12,-5.377 -12,-12c0,-6.623 5.377,-12 12,-12Z" style="fill:#bfbfbf;"/></svg>