<?xml version="1.0" encoding="UTF-8" standalone="no"?><!DOCTYPE svg PUBLIC "-//W3C//DTD SVG 1.1//EN" "http://www.w3.org/Graphics/SVG/1.1/DTD/svg11.dtd"><svg width="100%" height="100%" viewBox="0 0 43 49" version="1.1" xmlns="http://www.w3.org/2000/svg" xmlns:xlink="http://www.w3.org/1999/xlink" xml:space="preserve" xmlns:serif="http://www.serif.com/" style="fill-rule:evenodd;clip-rule:evenodd;stroke-linejoin:round;stroke-miterlimit:2;"><path d="M21.144,48.841c0,0 4.529,-1.817 9.394,-3.768c7.042,-2.824 11.75,-10.38 11.75,-18.857c0,-9.307 0,-19.776 0,-19.776c0,0 -5.755,-2.308 -11.26,-4.516c-6.396,-2.565 -13.372,-2.565 -19.768,0c-5.505,2.208 -11.26,4.516 -11.26,4.516l0,19.776c0,8.477 4.708,16.033 11.75,18.857c4.865,1.951 9.394,3.768 9.394,3.768Zm0,-45.96l0,43.079c0,0 -3.225,-1.294 -7,-2.808c-7.041,-2.824 -11.75,-10.38 -11.75,-18.857l0,-15.934c0,0 4.355,-1.747 8.866,-3.556c3.198,-1.283 6.541,-1.924 9.884,-1.924Z" style="fill:#bfbfbf;"/></svg>