<?xml version="1.0" encoding="UTF-8" standalone="no"?>
<!DOCTYPE svg PUBLIC "-//W3C//DTD SVG 1.1//EN" "http://www.w3.org/Graphics/SVG/1.1/DTD/svg11.dtd">
<svg width="100%" height="100%" viewBox="0 0 256 256" version="1.1" xmlns="http://www.w3.org/2000/svg" xmlns:xlink="http://www.w3.org/1999/xlink" xml:space="preserve" xmlns:serif="http://www.serif.com/" style="fill-rule:evenodd;clip-rule:evenodd;stroke-linejoin:round;stroke-miterlimit:2;">
    <g transform="matrix(1,0,0,1,0,-296.069)">
        <g id="Icons" transform="matrix(0.568106,0,0,0.488559,147.582,153.295)">
            <rect x="-259.78" y="292.235" width="450.62" height="523.99" style="fill:none;"/>
            <g transform="matrix(1.76023,0,0,2.04683,35.519,-216.469)">
                <path d="M32.182,309.691C45.428,309.691 56.182,320.445 56.182,333.691L32.182,333.691L8.182,333.691C8.182,320.445 18.936,309.691 32.182,309.691Z" style="fill:rgb(71,153,255);"/>
            </g>
            <g transform="matrix(1.76023,0,0,2.04683,-319.815,-387.295)">
                <path d="M66.262,339.991L66.416,339.993L66.571,339.995L66.726,339.999L66.88,340.003L67.034,340.009L67.187,340.015L67.341,340.022L67.494,340.03L67.647,340.04L67.799,340.05L67.952,340.061L68.104,340.073L68.256,340.086L68.408,340.1L68.559,340.115L68.71,340.131L68.861,340.148L69.011,340.165L69.161,340.184L69.311,340.203L69.461,340.224L69.61,340.245L69.759,340.268L69.908,340.291L70.057,340.315L70.205,340.34L70.353,340.366L70.5,340.393L70.647,340.421L70.794,340.449L70.941,340.479L71.087,340.509L71.233,340.541L71.379,340.573L71.524,340.606L71.669,340.64L71.813,340.675L71.958,340.71L72.101,340.747L72.245,340.785L72.388,340.823L72.531,340.862L72.674,340.902L72.816,340.943L72.958,340.985L73.099,341.027L73.24,341.071L73.381,341.115L73.521,341.16L73.661,341.206L73.801,341.253L73.94,341.3L74.078,341.349L74.217,341.398L74.355,341.448L74.493,341.499L74.63,341.551L74.767,341.603L74.903,341.657L75.039,341.711L75.175,341.766L75.31,341.822L75.445,341.878L75.579,341.936L75.713,341.994L75.846,342.053L75.98,342.112L76.112,342.173L76.244,342.234L76.376,342.296L76.508,342.359L76.639,342.423L76.769,342.487L76.899,342.552L77.029,342.618L77.158,342.685L77.286,342.752L77.415,342.82L77.542,342.889L77.67,342.959L77.796,343.03L77.923,343.101L78.049,343.173L78.174,343.245L78.299,343.319L78.423,343.393L78.547,343.468L78.671,343.543L78.794,343.619L78.916,343.696L79.038,343.774L79.16,343.853L79.281,343.932L79.401,344.012L79.521,344.092L79.641,344.173L79.76,344.255L79.878,344.338L79.996,344.421L80.113,344.505L80.23,344.59L80.346,344.675L80.462,344.762L80.577,344.848L80.692,344.936L80.806,345.024L80.92,345.113L81.033,345.202L81.146,345.292L81.258,345.383L81.369,345.474L81.48,345.566L81.59,345.659L81.7,345.752L81.809,345.846L81.918,345.941L82.026,346.036L82.133,346.132L82.24,346.229L82.346,346.326L82.452,346.424L82.557,346.522L82.662,346.621L82.766,346.721L82.869,346.821L82.972,346.922L83.074,347.024L83.175,347.126L83.276,347.229L83.376,347.332L83.476,347.436L83.575,347.54L83.674,347.645L83.771,347.751L83.869,347.857L83.965,347.964L84.061,348.072L84.156,348.18L84.251,348.288L84.345,348.398L84.438,348.507L84.531,348.618L84.623,348.728L84.715,348.84L84.805,348.952L84.895,349.064L84.985,349.177L85.074,349.291L85.162,349.405L85.249,349.52L85.336,349.635L85.422,349.751L85.507,349.867L85.592,349.984L85.676,350.102L85.759,350.219L85.842,350.338L85.924,350.457L86.005,350.576L86.086,350.696L86.166,350.817L86.245,350.938L86.323,351.059L86.401,351.181L86.478,351.304L86.554,351.427L86.63,351.55L86.705,351.674L86.779,351.798L86.852,351.923L86.925,352.049L86.997,352.175L87.068,352.301L87.138,352.428L87.208,352.555L87.277,352.683L87.345,352.811L87.413,352.94L87.479,353.069L87.545,353.198L87.61,353.328L87.675,353.459L87.738,353.59L87.801,353.721L87.863,353.853L87.924,353.985L87.985,354.118L88.045,354.251L88.104,354.384L88.162,354.518L88.219,354.653L88.276,354.788L88.331,354.923L88.386,355.058L88.441,355.194L88.494,355.331L88.547,355.468L88.598,355.605L88.649,355.742L88.699,355.881L88.749,356.019L88.797,356.158L88.845,356.297L88.891,356.436L88.937,356.576L88.982,356.717L89.027,356.857L89.07,356.998L89.113,357.14L89.154,357.282L89.195,357.424L89.235,357.566L89.275,357.709L89.313,357.852L89.35,357.996L89.387,358.14L89.423,358.284L89.457,358.429L89.491,358.574L89.525,358.719L89.557,358.864L89.588,359.01L89.618,359.157L89.648,359.303L89.677,359.45L89.704,359.597L89.731,359.745L89.757,359.893L89.782,360.041L89.806,360.189L89.83,360.338L89.852,360.487L89.873,360.636L89.894,360.786L89.913,360.936L89.932,361.086L89.95,361.237L89.967,361.387L89.982,361.539L89.997,361.69L90.011,361.841L90.024,361.993L90.036,362.146L90.048,362.298L90.058,362.451L90.067,362.604L90.075,362.757L90.083,362.91L90.089,363.064L90.094,363.218L90.099,363.372L90.102,363.526L90.104,363.681L90.106,363.836L90.106,363.991L90.106,364.146L90.104,364.301L90.102,364.456L90.099,364.61L90.094,364.764L90.089,364.918L90.083,365.072L90.075,365.225L90.067,365.378L90.058,365.531L90.048,365.684L90.036,365.836L90.024,365.989L90.011,366.14L89.997,366.292L89.982,366.443L89.967,366.594L89.95,366.745L89.932,366.896L89.913,367.046L89.894,367.196L89.873,367.345L89.852,367.495L89.83,367.644L89.806,367.793L89.782,367.941L89.757,368.089L89.731,368.237L89.704,368.385L89.677,368.532L89.648,368.679L89.618,368.825L89.588,368.971L89.557,369.117L89.525,369.263L89.491,369.408L89.457,369.553L89.423,369.698L89.387,369.842L89.35,369.986L89.313,370.13L89.275,370.273L89.235,370.416L89.195,370.558L89.154,370.7L89.113,370.842L89.07,370.983L89.027,371.125L88.982,371.265L88.937,371.406L88.891,371.545L88.845,371.685L88.797,371.824L88.749,371.963L88.699,372.101L88.649,372.239L88.598,372.377L88.547,372.514L88.494,372.651L88.441,372.787L88.386,372.923L88.331,373.059L88.276,373.194L88.219,373.329L88.162,373.463L88.104,373.597L88.045,373.731L87.985,373.864L87.924,373.997L87.863,374.129L87.801,374.261L87.738,374.392L87.675,374.523L87.61,374.653L87.545,374.783L87.479,374.913L87.413,375.042L87.345,375.171L87.277,375.299L87.208,375.427L87.138,375.554L87.068,375.681L86.997,375.807L86.925,375.933L86.852,376.059L86.779,376.183L86.705,376.308L86.63,376.432L86.554,376.555L86.478,376.678L86.401,376.801L86.323,376.923L86.245,377.044L86.166,377.165L86.086,377.286L86.005,377.406L85.924,377.525L85.842,377.644L85.759,377.762L85.676,377.88L85.592,377.998L85.507,378.115L85.422,378.231L85.336,378.347L85.249,378.462L85.162,378.577L85.074,378.691L84.985,378.804L84.895,378.918L84.805,379.03L84.715,379.142L84.623,379.253L84.531,379.364L84.438,379.475L84.345,379.584L84.251,379.694L84.156,379.802L84.061,379.91L83.965,380.018L83.869,380.124L83.771,380.231L83.674,380.336L83.575,380.442L83.476,380.546L83.376,380.65L83.276,380.753L83.175,380.856L83.074,380.958L82.972,381.06L82.869,381.161L82.766,381.261L82.662,381.361L82.557,381.46L82.452,381.558L82.346,381.656L82.24,381.753L82.133,381.85L82.026,381.946L81.918,382.041L81.809,382.135L81.7,382.23L81.59,382.323L81.48,382.416L81.369,382.508L81.258,382.599L81.146,382.69L81.033,382.78L80.92,382.869L80.806,382.958L80.692,383.046L80.577,383.134L80.462,383.22L80.346,383.306L80.23,383.392L80.113,383.477L79.996,383.561L79.878,383.644L79.76,383.727L79.641,383.809L79.521,383.89L79.401,383.97L79.281,384.05L79.16,384.129L79.038,384.208L78.916,384.285L78.794,384.362L78.671,384.439L78.547,384.514L78.423,384.589L78.299,384.663L78.174,384.737L78.049,384.809L77.923,384.881L77.796,384.952L77.67,385.023L77.542,385.092L77.415,385.161L77.286,385.23L77.158,385.297L77.029,385.364L76.899,385.43L76.769,385.495L76.639,385.559L76.508,385.623L76.376,385.686L76.244,385.748L76.112,385.809L75.98,385.869L75.846,385.929L75.713,385.988L75.579,386.046L75.445,386.104L75.31,386.16L75.175,386.216L75.039,386.271L74.903,386.325L74.767,386.378L74.63,386.431L74.493,386.483L74.355,386.534L74.217,386.584L74.078,386.633L73.94,386.681L73.801,386.729L73.661,386.776L73.521,386.822L73.381,386.867L73.24,386.911L73.099,386.955L72.958,386.997L72.816,387.039L72.674,387.08L72.531,387.12L72.388,387.159L72.245,387.197L72.101,387.235L71.958,387.271L71.813,387.307L71.669,387.342L71.524,387.376L71.379,387.409L71.233,387.441L71.087,387.473L70.941,387.503L70.794,387.533L70.647,387.561L70.5,387.589L70.353,387.616L70.205,387.642L70.057,387.667L69.908,387.691L69.759,387.714L69.61,387.737L69.461,387.758L69.311,387.778L69.161,387.798L69.011,387.817L68.861,387.834L68.71,387.851L68.559,387.867L68.408,387.882L68.256,387.896L68.104,387.909L67.952,387.921L67.799,387.932L67.647,387.942L67.494,387.951L67.341,387.96L67.187,387.967L67.034,387.973L66.88,387.979L66.726,387.983L66.571,387.987L66.416,387.989L66.262,387.99L66.106,387.991L65.951,387.99L65.796,387.989L65.642,387.987L65.487,387.983L65.333,387.979L65.179,387.973L65.026,387.967L64.872,387.96L64.719,387.951L64.566,387.942L64.413,387.932L64.261,387.921L64.109,387.909L63.957,387.896L63.805,387.882L63.654,387.867L63.503,387.851L63.352,387.834L63.202,387.817L63.052,387.798L62.902,387.778L62.752,387.758L62.603,387.737L62.454,387.714L62.305,387.691L62.156,387.667L62.008,387.642L61.86,387.616L61.713,387.589L61.566,387.561L61.419,387.533L61.272,387.503L61.126,387.473L60.98,387.441L60.834,387.409L60.689,387.376L60.544,387.342L60.4,387.307L60.255,387.271L60.111,387.235L59.968,387.197L59.825,387.159L59.682,387.12L59.539,387.08L59.397,387.039L59.255,386.997L59.114,386.955L58.973,386.911L58.832,386.867L58.692,386.822L58.552,386.776L58.412,386.729L58.273,386.681L58.134,386.633L57.996,386.584L57.858,386.534L57.72,386.483L57.583,386.431L57.446,386.378L57.31,386.325L57.174,386.271L57.038,386.216L56.903,386.16L56.768,386.104L56.634,386.046L56.5,385.988L56.366,385.929L56.233,385.869L56.101,385.809L55.968,385.748L55.837,385.686L55.705,385.623L55.574,385.559L55.444,385.495L55.314,385.43L55.184,385.364L55.055,385.297L54.927,385.23L54.798,385.161L54.671,385.092L54.543,385.023L54.416,384.952L54.29,384.881L54.164,384.809L54.039,384.737L53.914,384.663L53.789,384.589L53.666,384.514L53.542,384.439L53.419,384.362L53.297,384.285L53.175,384.208L53.053,384.129L52.932,384.05L52.812,383.97L52.692,383.89L52.572,383.809L52.453,383.727L52.335,383.644L52.217,383.561L52.1,383.477L51.983,383.392L51.866,383.306L51.751,383.22L51.635,383.134L51.521,383.046L51.407,382.958L51.293,382.869L51.18,382.78L51.067,382.69L50.955,382.599L50.844,382.508L50.733,382.416L50.623,382.323L50.513,382.23L50.404,382.135L50.295,382.041L50.187,381.946L50.08,381.85L49.973,381.753L49.867,381.656L49.761,381.558L49.656,381.46L49.551,381.361L49.447,381.261L49.344,381.161L49.241,381.06L49.139,380.958L49.038,380.856L48.937,380.753L48.837,380.65L48.737,380.546L48.638,380.442L48.539,380.336L48.442,380.231L48.344,380.124L48.248,380.018L48.152,379.91L48.057,379.802L47.962,379.694L47.868,379.584L47.775,379.475L47.682,379.364L47.59,379.253L47.498,379.142L47.408,379.03L47.317,378.918L47.228,378.804L47.139,378.691L47.051,378.577L46.964,378.462L46.877,378.347L46.791,378.231L46.706,378.115L46.621,377.998L46.537,377.88L46.453,377.762L46.371,377.644L46.289,377.525L46.208,377.406L46.127,377.286L46.047,377.165L45.968,377.044L45.89,376.923L45.812,376.801L45.735,376.678L45.659,376.555L45.583,376.432L45.508,376.308L45.434,376.183L45.361,376.059L45.288,375.933L45.216,375.807L45.145,375.681L45.075,375.554L45.005,375.427L44.936,375.299L44.868,375.171L44.8,375.042L44.734,374.913L44.668,374.783L44.603,374.653L44.538,374.523L44.475,374.392L44.412,374.261L44.35,374.129L44.288,373.997L44.228,373.864L44.168,373.731L44.109,373.597L44.051,373.463L43.994,373.329L43.937,373.194L43.881,373.059L43.826,372.923L43.772,372.787L43.719,372.651L43.666,372.514L43.615,372.377L43.564,372.239L43.514,372.101L43.464,371.963L43.416,371.824L43.368,371.685L43.322,371.545L43.276,371.406L43.23,371.265L43.186,371.125L43.143,370.983L43.1,370.842L43.058,370.7L43.018,370.558L42.978,370.416L42.938,370.273L42.9,370.13L42.863,369.986L42.826,369.842L42.79,369.698L42.755,369.553L42.721,369.408L42.688,369.263L42.656,369.117L42.625,368.971L42.594,368.825L42.565,368.679L42.536,368.532L42.508,368.385L42.482,368.237L42.456,368.089L42.431,367.941L42.406,367.793L42.383,367.644L42.361,367.495L42.339,367.345L42.319,367.196L42.299,367.046L42.281,366.896L42.263,366.745L42.246,366.594L42.23,366.443L42.216,366.292L42.202,366.14L42.189,365.989L42.176,365.836L42.165,365.684L42.155,365.531L42.146,365.378L42.138,365.225L42.13,365.072L42.124,364.918L42.119,364.764L42.114,364.61L42.111,364.456L42.108,364.301L42.107,364.146L42.106,363.991L42.107,363.836L42.108,363.681L42.111,363.526L42.114,363.372L42.119,363.218L42.124,363.064L42.13,362.91L42.138,362.757L42.146,362.604L42.155,362.451L42.165,362.298L42.176,362.146L42.189,361.993L42.202,361.841L42.216,361.69L42.23,361.539L42.246,361.387L42.263,361.237L42.281,361.086L42.299,360.936L42.319,360.786L42.339,360.636L42.361,360.487L42.383,360.338L42.406,360.189L42.431,360.041L42.456,359.893L42.482,359.745L42.508,359.597L42.536,359.45L42.565,359.303L42.594,359.157L42.625,359.01L42.656,358.864L42.688,358.719L42.721,358.574L42.755,358.429L42.79,358.284L42.826,358.14L42.863,357.996L42.9,357.852L42.938,357.709L42.978,357.566L43.018,357.424L43.058,357.282L43.1,357.14L43.143,356.998L43.186,356.857L43.23,356.717L43.276,356.576L43.322,356.436L43.368,356.297L43.416,356.158L43.464,356.019L43.514,355.881L43.564,355.742L43.615,355.605L43.666,355.468L43.719,355.331L43.772,355.194L43.826,355.058L43.881,354.923L43.937,354.788L43.994,354.653L44.051,354.518L44.109,354.384L44.168,354.251L44.228,354.118L44.288,353.985L44.35,353.853L44.412,353.721L44.475,353.59L44.538,353.459L44.603,353.328L44.668,353.198L44.734,353.069L44.8,352.94L44.868,352.811L44.936,352.683L45.005,352.555L45.075,352.428L45.145,352.301L45.216,352.175L45.288,352.049L45.361,351.923L45.434,351.798L45.508,351.674L45.583,351.55L45.659,351.427L45.735,351.304L45.812,351.181L45.89,351.059L45.968,350.938L46.047,350.817L46.127,350.696L46.208,350.576L46.289,350.457L46.371,350.338L46.453,350.219L46.537,350.102L46.621,349.984L46.706,349.867L46.791,349.751L46.877,349.635L46.964,349.52L47.051,349.405L47.139,349.291L47.228,349.177L47.317,349.064L47.408,348.952L47.498,348.84L47.59,348.728L47.682,348.618L47.775,348.507L47.868,348.398L47.962,348.288L48.057,348.18L48.152,348.072L48.248,347.964L48.344,347.857L48.442,347.751L48.539,347.645L48.638,347.54L48.737,347.436L48.837,347.332L48.937,347.229L49.038,347.126L49.139,347.024L49.241,346.922L49.344,346.821L49.447,346.721L49.551,346.621L49.656,346.522L49.761,346.424L49.867,346.326L49.973,346.229L50.08,346.132L50.187,346.036L50.295,345.941L50.404,345.846L50.513,345.752L50.623,345.659L50.733,345.566L50.844,345.474L50.955,345.383L51.067,345.292L51.18,345.202L51.293,345.113L51.407,345.024L51.521,344.936L51.635,344.848L51.751,344.762L51.866,344.675L51.983,344.59L52.1,344.505L52.217,344.421L52.335,344.338L52.453,344.255L52.572,344.173L52.692,344.092L52.812,344.012L52.932,343.932L53.053,343.853L53.175,343.774L53.297,343.696L53.419,343.619L53.542,343.543L53.666,343.468L53.789,343.393L53.914,343.319L54.039,343.245L54.164,343.173L54.29,343.101L54.416,343.03L54.543,342.959L54.671,342.889L54.798,342.82L54.927,342.752L55.055,342.685L55.184,342.618L55.314,342.552L55.444,342.487L55.574,342.423L55.705,342.359L55.837,342.296L55.968,342.234L56.101,342.173L56.233,342.112L56.366,342.053L56.5,341.994L56.634,341.936L56.768,341.878L56.903,341.822L57.038,341.766L57.174,341.711L57.31,341.657L57.446,341.603L57.583,341.551L57.72,341.499L57.858,341.448L57.996,341.398L58.134,341.349L58.273,341.3L58.412,341.253L58.552,341.206L58.692,341.16L58.832,341.115L58.973,341.071L59.114,341.027L59.255,340.985L59.397,340.943L59.539,340.902L59.682,340.862L59.825,340.823L59.968,340.785L60.111,340.747L60.255,340.71L60.4,340.675L60.544,340.64L60.689,340.606L60.834,340.573L60.98,340.541L61.126,340.509L61.272,340.479L61.419,340.449L61.566,340.421L61.713,340.393L61.86,340.366L62.008,340.34L62.156,340.315L62.305,340.291L62.454,340.268L62.603,340.245L62.752,340.224L62.902,340.203L63.052,340.184L63.202,340.165L63.352,340.148L63.503,340.131L63.654,340.115L63.805,340.1L63.957,340.086L64.109,340.073L64.261,340.061L64.413,340.05L64.566,340.04L64.719,340.03L64.872,340.022L65.026,340.015L65.179,340.009L65.333,340.003L65.487,339.999L65.642,339.995L65.796,339.993L65.951,339.991L66.106,339.991L66.262,339.991ZM65.977,343.991L65.847,343.993L65.718,343.995L65.589,343.998L65.46,344.001L65.332,344.006L65.203,344.011L65.075,344.017L64.947,344.024L64.819,344.032L64.692,344.04L64.565,344.049L64.438,344.06L64.311,344.07L64.185,344.082L64.059,344.094L63.933,344.108L63.807,344.122L63.682,344.136L63.556,344.152L63.432,344.168L63.307,344.185L63.183,344.203L63.059,344.222L62.935,344.241L62.811,344.261L62.687,344.282L62.565,344.304L62.442,344.326L62.319,344.349L62.197,344.373L62.075,344.398L61.953,344.423L61.832,344.449L61.71,344.476L61.59,344.503L61.469,344.532L61.349,344.561L61.229,344.59L61.109,344.621L60.99,344.652L60.87,344.684L60.752,344.716L60.633,344.75L60.515,344.784L60.397,344.818L60.279,344.854L60.162,344.89L60.045,344.927L59.928,344.964L59.812,345.003L59.696,345.041L59.58,345.081L59.464,345.121L59.349,345.162L59.234,345.204L59.12,345.246L59.006,345.289L58.892,345.333L58.778,345.378L58.665,345.423L58.552,345.468L58.439,345.515L58.328,345.562L58.216,345.61L58.104,345.658L57.993,345.707L57.882,345.757L57.772,345.807L57.662,345.858L57.552,345.91L57.443,345.962L57.333,346.015L57.225,346.069L57.117,346.123L57.009,346.178L56.901,346.233L56.794,346.29L56.687,346.346L56.581,346.404L56.475,346.462L56.369,346.521L56.264,346.58L56.159,346.64L56.054,346.7L55.95,346.761L55.847,346.823L55.743,346.886L55.64,346.949L55.538,347.012L55.436,347.076L55.334,347.141L55.233,347.207L55.132,347.272L55.032,347.339L54.931,347.406L54.832,347.474L54.733,347.542L54.634,347.611L54.536,347.681L54.438,347.751L54.34,347.822L54.243,347.893L54.147,347.964L54.051,348.037L53.955,348.11L53.859,348.183L53.765,348.257L53.671,348.332L53.577,348.407L53.483,348.483L53.39,348.559L53.298,348.636L53.206,348.713L53.114,348.791L53.023,348.87L52.932,348.949L52.842,349.028L52.753,349.108L52.663,349.189L52.575,349.27L52.487,349.351L52.399,349.434L52.312,349.516L52.225,349.6L52.139,349.683L52.053,349.767L51.968,349.852L51.883,349.937L51.799,350.023L51.715,350.109L51.632,350.196L51.549,350.283L51.467,350.371L51.385,350.459L51.304,350.548L51.224,350.637L51.144,350.727L51.064,350.817L50.985,350.908L50.907,350.999L50.829,351.09L50.751,351.182L50.675,351.275L50.598,351.368L50.523,351.461L50.448,351.555L50.373,351.649L50.299,351.744L50.225,351.839L50.152,351.935L50.08,352.031L50.008,352.128L49.937,352.225L49.866,352.322L49.796,352.42L49.727,352.518L49.658,352.617L49.589,352.717L49.522,352.816L49.455,352.916L49.388,353.017L49.322,353.117L49.257,353.218L49.192,353.32L49.128,353.422L49.064,353.525L49.001,353.628L48.939,353.731L48.877,353.835L48.816,353.939L48.755,354.043L48.695,354.148L48.636,354.254L48.577,354.359L48.519,354.465L48.462,354.572L48.405,354.678L48.349,354.786L48.293,354.893L48.239,355.001L48.184,355.109L48.131,355.218L48.078,355.327L48.025,355.436L47.974,355.546L47.923,355.656L47.872,355.767L47.823,355.877L47.773,355.989L47.725,356.1L47.677,356.212L47.63,356.324L47.584,356.437L47.538,356.55L47.493,356.663L47.449,356.776L47.405,356.89L47.362,357.004L47.32,357.119L47.278,357.234L47.237,357.349L47.197,357.464L47.157,357.58L47.118,357.696L47.08,357.813L47.042,357.929L47.005,358.046L46.969,358.164L46.934,358.281L46.899,358.399L46.865,358.518L46.832,358.636L46.799,358.755L46.767,358.874L46.736,358.994L46.706,359.113L46.676,359.233L46.647,359.354L46.619,359.474L46.591,359.595L46.564,359.716L46.538,359.838L46.513,359.959L46.488,360.081L46.465,360.204L46.442,360.326L46.419,360.449L46.398,360.572L46.377,360.695L46.357,360.819L46.337,360.943L46.319,361.067L46.301,361.191L46.284,361.316L46.267,361.441L46.252,361.566L46.237,361.692L46.223,361.817L46.21,361.943L46.198,362.069L46.186,362.196L46.175,362.322L46.165,362.449L46.156,362.577L46.147,362.704L46.139,362.832L46.133,362.959L46.126,363.088L46.121,363.216L46.117,363.345L46.113,363.473L46.11,363.602L46.108,363.732L46.107,363.861L46.106,363.991L46.107,364.121L46.108,364.25L46.11,364.379L46.113,364.509L46.117,364.637L46.121,364.766L46.126,364.894L46.133,365.022L46.139,365.15L46.147,365.278L46.156,365.405L46.165,365.532L46.175,365.659L46.186,365.786L46.198,365.913L46.21,366.039L46.223,366.165L46.237,366.29L46.252,366.416L46.267,366.541L46.284,366.666L46.301,366.79L46.319,366.915L46.337,367.039L46.357,367.163L46.377,367.286L46.398,367.41L46.419,367.533L46.441,367.656L46.465,367.778L46.488,367.901L46.513,368.023L46.538,368.144L46.564,368.266L46.591,368.387L46.619,368.508L46.647,368.628L46.676,368.749L46.706,368.869L46.736,368.988L46.767,369.108L46.799,369.227L46.832,369.346L46.865,369.464L46.899,369.582L46.934,369.701L46.969,369.818L47.005,369.936L47.042,370.053L47.08,370.169L47.118,370.286L47.157,370.402L47.197,370.518L47.237,370.633L47.278,370.748L47.32,370.863L47.362,370.978L47.405,371.092L47.449,371.206L47.493,371.319L47.538,371.432L47.584,371.545L47.63,371.658L47.677,371.77L47.725,371.882L47.773,371.993L47.823,372.104L47.872,372.215L47.923,372.326L47.974,372.436L48.025,372.546L48.078,372.655L48.131,372.764L48.184,372.873L48.239,372.981L48.293,373.089L48.349,373.196L48.405,373.303L48.462,373.41L48.519,373.517L48.577,373.623L48.636,373.728L48.695,373.834L48.755,373.939L48.816,374.043L48.877,374.147L48.939,374.251L49.001,374.354L49.064,374.457L49.128,374.56L49.192,374.662L49.257,374.763L49.322,374.865L49.388,374.965L49.455,375.066L49.522,375.166L49.59,375.265L49.658,375.365L49.727,375.463L49.796,375.562L49.866,375.66L49.937,375.757L50.008,375.854L50.08,375.951L50.153,376.047L50.225,376.143L50.299,376.238L50.373,376.333L50.447,376.427L50.523,376.521L50.599,376.614L50.675,376.707L50.751,376.8L50.829,376.892L50.907,376.983L50.985,377.074L51.064,377.165L51.143,377.255L51.224,377.345L51.304,377.434L51.385,377.523L51.467,377.611L51.549,377.699L51.632,377.786L51.715,377.873L51.799,377.959L51.883,378.044L51.968,378.13L52.053,378.214L52.139,378.299L52.225,378.383L52.311,378.465L52.399,378.548L52.487,378.631L52.575,378.712L52.663,378.793L52.753,378.874L52.842,378.954L52.932,379.033L53.023,379.112L53.114,379.191L53.206,379.269L53.298,379.346L53.39,379.423L53.483,379.499L53.577,379.575L53.67,379.65L53.765,379.725L53.86,379.799L53.955,379.872L54.051,379.945L54.147,380.017L54.243,380.089L54.34,380.16L54.438,380.231L54.536,380.301L54.634,380.371L54.733,380.44L54.832,380.508L54.931,380.575L55.032,380.643L55.132,380.709L55.233,380.775L55.334,380.841L55.436,380.906L55.538,380.97L55.641,381.033L55.743,381.096L55.847,381.159L55.95,381.22L56.054,381.282L56.159,381.342L56.264,381.402L56.369,381.461L56.475,381.52L56.581,381.578L56.687,381.636L56.794,381.692L56.901,381.748L57.009,381.804L57.117,381.859L57.225,381.913L57.333,381.967L57.442,382.02L57.552,382.072L57.662,382.124L57.772,382.175L57.882,382.225L57.993,382.275L58.104,382.324L58.216,382.372L58.328,382.42L58.439,382.467L58.552,382.514L58.665,382.559L58.778,382.604L58.892,382.649L59.005,382.692L59.12,382.735L59.235,382.778L59.349,382.82L59.464,382.861L59.579,382.901L59.695,382.94L59.812,382.979L59.928,383.018L60.045,383.055L60.162,383.092L60.279,383.128L60.397,383.164L60.515,383.198L60.633,383.232L60.752,383.266L60.87,383.298L60.989,383.33L61.109,383.361L61.229,383.392L61.349,383.421L61.469,383.45L61.59,383.479L61.71,383.506L61.832,383.533L61.953,383.559L62.075,383.584L62.197,383.609L62.319,383.633L62.442,383.656L62.564,383.678L62.687,383.7L62.811,383.721L62.935,383.741L63.059,383.76L63.183,383.779L63.307,383.797L63.432,383.814L63.557,383.83L63.682,383.845L63.807,383.86L63.933,383.874L64.059,383.887L64.185,383.9L64.311,383.912L64.438,383.922L64.565,383.932L64.692,383.942L64.819,383.95L64.947,383.958L65.075,383.965L65.203,383.971L65.331,383.976L65.46,383.981L65.589,383.984L65.718,383.987L65.847,383.989L65.977,383.991L66.106,383.991L66.236,383.991L66.366,383.989L66.495,383.987L66.624,383.984L66.753,383.981L66.882,383.976L67.01,383.971L67.138,383.965L67.266,383.958L67.394,383.95L67.521,383.942L67.648,383.932L67.775,383.922L67.901,383.912L68.028,383.9L68.154,383.887L68.28,383.874L68.406,383.86L68.531,383.845L68.656,383.83L68.781,383.814L68.906,383.797L69.03,383.779L69.154,383.76L69.278,383.741L69.402,383.721L69.525,383.7L69.649,383.678L69.771,383.656L69.893,383.633L70.016,383.609L70.138,383.584L70.26,383.559L70.381,383.533L70.502,383.506L70.623,383.479L70.744,383.45L70.864,383.421L70.984,383.392L71.104,383.361L71.223,383.33L71.343,383.298L71.461,383.266L71.58,383.232L71.698,383.198L71.816,383.164L71.934,383.128L72.051,383.092L72.168,383.055L72.285,383.018L72.401,382.979L72.518,382.94L72.633,382.901L72.749,382.861L72.864,382.82L72.978,382.778L73.093,382.735L73.208,382.692L73.321,382.649L73.435,382.604L73.548,382.559L73.661,382.514L73.773,382.467L73.885,382.42L73.997,382.372L74.109,382.324L74.22,382.275L74.331,382.225L74.441,382.175L74.551,382.124L74.661,382.072L74.77,382.02L74.88,381.967L74.988,381.913L75.096,381.859L75.204,381.804L75.312,381.748L75.419,381.692L75.526,381.636L75.632,381.578L75.738,381.52L75.844,381.461L75.949,381.402L76.054,381.342L76.159,381.282L76.263,381.22L76.366,381.159L76.47,381.096L76.572,381.033L76.675,380.97L76.777,380.906L76.879,380.841L76.98,380.775L77.081,380.709L77.181,380.643L77.282,380.575L77.381,380.508L77.48,380.44L77.579,380.371L77.677,380.301L77.775,380.231L77.873,380.16L77.97,380.089L78.066,380.017L78.162,379.945L78.258,379.872L78.353,379.799L78.448,379.725L78.543,379.65L78.636,379.575L78.73,379.499L78.823,379.423L78.915,379.346L79.007,379.269L79.099,379.191L79.19,379.112L79.281,379.033L79.371,378.954L79.46,378.874L79.55,378.793L79.638,378.712L79.726,378.631L79.814,378.548L79.902,378.465L79.988,378.382L80.074,378.299L80.16,378.214L80.245,378.13L80.33,378.044L80.414,377.959L80.498,377.873L80.581,377.786L80.664,377.699L80.746,377.611L80.827,377.523L80.909,377.434L80.989,377.345L81.069,377.255L81.149,377.165L81.228,377.074L81.306,376.983L81.384,376.892L81.462,376.8L81.538,376.707L81.614,376.614L81.69,376.521L81.766,376.427L81.84,376.333L81.914,376.238L81.988,376.143L82.06,376.047L82.133,375.951L82.205,375.854L82.276,375.757L82.347,375.66L82.417,375.562L82.486,375.464L82.555,375.365L82.623,375.265L82.691,375.166L82.758,375.066L82.825,374.965L82.891,374.865L82.956,374.763L83.021,374.662L83.085,374.56L83.149,374.457L83.212,374.354L83.274,374.251L83.336,374.147L83.397,374.043L83.458,373.939L83.518,373.834L83.577,373.728L83.636,373.623L83.694,373.517L83.751,373.41L83.808,373.303L83.864,373.196L83.919,373.089L83.974,372.981L84.029,372.873L84.082,372.764L84.135,372.655L84.187,372.546L84.239,372.436L84.29,372.326L84.341,372.215L84.39,372.104L84.439,371.993L84.488,371.882L84.535,371.77L84.583,371.658L84.629,371.545L84.675,371.432L84.72,371.319L84.764,371.206L84.808,371.092L84.851,370.978L84.893,370.863L84.935,370.748L84.976,370.633L85.016,370.518L85.056,370.402L85.095,370.286L85.133,370.169L85.171,370.053L85.207,369.936L85.244,369.818L85.279,369.701L85.314,369.582L85.348,369.464L85.381,369.346L85.414,369.227L85.446,369.108L85.477,368.988L85.507,368.869L85.537,368.749L85.566,368.628L85.594,368.508L85.622,368.387L85.648,368.266L85.675,368.144L85.7,368.023L85.724,367.901L85.748,367.778L85.771,367.656L85.794,367.533L85.815,367.41L85.836,367.286L85.856,367.163L85.876,367.039L85.894,366.915L85.912,366.79L85.929,366.666L85.945,366.541L85.961,366.416L85.976,366.29L85.99,366.165L86.003,366.039L86.015,365.913L86.027,365.786L86.038,365.659L86.048,365.532L86.057,365.405L86.066,365.278L86.073,365.15L86.08,365.022L86.086,364.894L86.092,364.766L86.096,364.637L86.1,364.509L86.103,364.38L86.105,364.25L86.106,364.121L86.106,363.991L86.106,363.861L86.105,363.732L86.103,363.602L86.1,363.473L86.096,363.344L86.092,363.216L86.086,363.088L86.08,362.959L86.073,362.832L86.066,362.704L86.057,362.577L86.048,362.449L86.038,362.322L86.027,362.196L86.015,362.069L86.003,361.943L85.99,361.817L85.976,361.692L85.961,361.566L85.945,361.441L85.929,361.316L85.912,361.191L85.894,361.067L85.876,360.943L85.856,360.819L85.836,360.695L85.815,360.572L85.794,360.449L85.771,360.326L85.748,360.204L85.724,360.081L85.7,359.959L85.675,359.838L85.648,359.716L85.622,359.595L85.594,359.474L85.566,359.354L85.537,359.233L85.507,359.113L85.477,358.994L85.446,358.874L85.414,358.755L85.381,358.636L85.348,358.518L85.314,358.399L85.279,358.281L85.244,358.164L85.207,358.046L85.171,357.929L85.133,357.813L85.095,357.696L85.056,357.58L85.016,357.464L84.976,357.349L84.935,357.234L84.893,357.119L84.851,357.004L84.808,356.89L84.764,356.776L84.72,356.663L84.675,356.55L84.629,356.437L84.583,356.324L84.535,356.212L84.488,356.1L84.439,355.989L84.39,355.877L84.341,355.767L84.29,355.656L84.239,355.546L84.187,355.436L84.135,355.327L84.082,355.218L84.029,355.109L83.974,355.001L83.919,354.893L83.864,354.786L83.808,354.678L83.751,354.572L83.694,354.465L83.636,354.359L83.577,354.254L83.518,354.148L83.458,354.043L83.397,353.939L83.336,353.835L83.274,353.731L83.212,353.628L83.149,353.525L83.085,353.422L83.021,353.32L82.956,353.218L82.891,353.117L82.825,353.017L82.758,352.916L82.691,352.816L82.624,352.717L82.555,352.617L82.486,352.518L82.417,352.42L82.347,352.322L82.276,352.225L82.205,352.128L82.133,352.031L82.061,351.935L81.988,351.839L81.914,351.744L81.84,351.649L81.765,351.555L81.69,351.461L81.615,351.368L81.538,351.275L81.462,351.182L81.384,351.09L81.306,350.999L81.228,350.908L81.149,350.817L81.069,350.727L80.989,350.637L80.909,350.548L80.827,350.459L80.746,350.371L80.664,350.283L80.581,350.196L80.498,350.109L80.414,350.023L80.33,349.937L80.245,349.852L80.16,349.767L80.074,349.683L79.988,349.6L79.901,349.516L79.814,349.434L79.726,349.351L79.638,349.27L79.549,349.189L79.46,349.108L79.371,349.028L79.281,348.949L79.19,348.87L79.099,348.791L79.007,348.713L78.915,348.636L78.823,348.559L78.73,348.483L78.636,348.407L78.542,348.332L78.448,348.257L78.353,348.183L78.258,348.11L78.162,348.037L78.066,347.964L77.97,347.893L77.873,347.822L77.775,347.751L77.677,347.681L77.579,347.611L77.48,347.542L77.381,347.474L77.282,347.406L77.181,347.339L77.081,347.272L76.98,347.207L76.879,347.141L76.777,347.076L76.675,347.012L76.572,346.949L76.47,346.886L76.366,346.823L76.263,346.761L76.159,346.7L76.054,346.64L75.949,346.58L75.844,346.521L75.738,346.462L75.632,346.404L75.526,346.346L75.419,346.29L75.312,346.233L75.204,346.178L75.096,346.123L74.988,346.069L74.88,346.015L74.77,345.962L74.661,345.91L74.551,345.858L74.441,345.807L74.331,345.757L74.22,345.707L74.109,345.658L73.997,345.61L73.885,345.562L73.773,345.515L73.661,345.468L73.548,345.423L73.435,345.378L73.321,345.333L73.207,345.289L73.093,345.246L72.979,345.204L72.864,345.162L72.749,345.121L72.633,345.081L72.517,345.041L72.401,345.003L72.285,344.964L72.168,344.927L72.051,344.89L71.934,344.854L71.816,344.818L71.698,344.784L71.58,344.75L71.461,344.716L71.343,344.684L71.223,344.652L71.104,344.621L70.984,344.59L70.864,344.561L70.744,344.532L70.623,344.503L70.502,344.476L70.381,344.449L70.26,344.423L70.138,344.398L70.016,344.373L69.894,344.349L69.771,344.326L69.648,344.304L69.525,344.282L69.402,344.261L69.278,344.241L69.154,344.222L69.03,344.203L68.906,344.185L68.781,344.168L68.656,344.152L68.531,344.136L68.406,344.122L68.28,344.108L68.154,344.094L68.028,344.082L67.902,344.07L67.775,344.06L67.648,344.049L67.521,344.04L67.394,344.032L67.266,344.024L67.138,344.017L67.01,344.011L66.881,344.006L66.753,344.001L66.624,343.998L66.495,343.995L66.366,343.993L66.236,343.991L66.106,343.991L65.977,343.991Z" style="fill:rgb(191,191,191);"/>
            </g>
            <g transform="matrix(0.972277,0,0,1.13058,-259.948,-94.513)">
                <ellipse cx="58.106" cy="371.991" rx="4.551" ry="4.513" style="fill:rgb(191,191,191);"/>
            </g>
            <g transform="matrix(0.972277,0,0,1.13058,-239.934,-84.3093)">
                <ellipse cx="58.106" cy="371.991" rx="4.551" ry="4.513" style="fill:rgb(191,191,191);"/>
            </g>
            <g transform="matrix(0.972277,0,0,1.13058,-280.004,-84.3093)">
                <ellipse cx="58.106" cy="371.991" rx="4.551" ry="4.513" style="fill:rgb(191,191,191);"/>
            </g>
            <g transform="matrix(0.972277,0,0,1.13058,-232.761,-62.8328)">
                <ellipse cx="58.106" cy="371.991" rx="4.551" ry="4.513" style="fill:rgb(191,191,191);"/>
            </g>
            <g transform="matrix(0.972277,0,0,1.13058,-287.169,-62.8328)">
                <ellipse cx="58.106" cy="371.991" rx="4.551" ry="4.513" style="fill:rgb(191,191,191);"/>
            </g>
            <g transform="matrix(1.07783e-16,-2.04683,1.76023,1.25332e-16,-840.871,484.917)">
                <rect x="62.137" y="361.498" width="10.897" height="1.247" style="fill:rgb(191,191,191);"/>
                <rect x="62.137" y="361.498" width="10.897" height="1.247" style="fill:rgb(191,191,191);"/>
            </g>
            <g transform="matrix(1.76023,0,0,2.04683,-259.78,-313.769)">
                <path d="M96.201,322.613L114.343,304.471L120,310.128L101.858,328.27L120,346.412L114.343,352.069L96.201,333.927L78.059,352.069L72.402,346.412L90.544,328.27L72.402,310.128L78.059,304.471L96.201,322.613Z" style="fill:rgb(191,191,191);"/>
                <path d="M120,310.128L101.858,328.27L120,346.412L114.343,352.069L96.201,333.927L78.059,352.069L72.402,346.412L90.544,328.27L72.402,310.128L78.059,304.471L96.201,322.613L114.343,304.471L120,310.128ZM96.908,323.32L96.81,323.407L96.701,323.479L96.584,323.537L96.46,323.579L96.332,323.605L96.201,323.613L96.07,323.605L95.942,323.579L95.818,323.537L95.701,323.479L95.592,323.407L95.494,323.32L78.059,305.885L73.816,310.128L91.251,327.563L91.338,327.661L91.41,327.77L91.468,327.887L91.51,328.011L91.536,328.14L91.544,328.27L91.536,328.401L91.51,328.529L91.468,328.653L91.41,328.77L91.338,328.879L91.251,328.977L73.816,346.412L78.059,350.655L95.494,333.22L95.592,333.134L95.701,333.061L95.818,333.003L95.942,332.961L96.07,332.935L96.201,332.927L96.332,332.935L96.46,332.961L96.584,333.003L96.701,333.061L96.81,333.134L96.908,333.22L114.343,350.655L118.586,346.412L101.151,328.977L101.065,328.879L100.992,328.77L100.934,328.653L100.892,328.529L100.866,328.401L100.858,328.27L100.866,328.14L100.892,328.011L100.934,327.887L100.992,327.77L101.065,327.661L101.151,327.563L118.586,310.128L114.343,305.885L96.908,323.32Z" style="fill:rgb(191,191,191);"/>
            </g>
        </g>
    </g>
</svg>
