<?xml version="1.0" encoding="UTF-8" standalone="no"?><!DOCTYPE svg PUBLIC "-//W3C//DTD SVG 1.1//EN" "http://www.w3.org/Graphics/SVG/1.1/DTD/svg11.dtd"><svg width="100%" height="100%" viewBox="0 0 48 48" version="1.1" xmlns="http://www.w3.org/2000/svg" xmlns:xlink="http://www.w3.org/1999/xlink" xml:space="preserve" xmlns:serif="http://www.serif.com/" style="fill-rule:evenodd;clip-rule:evenodd;stroke-linejoin:round;stroke-miterlimit:2;"><path d="M38.59,24c5.72,5.525 9.41,6.232 9.41,16c0,0 0,0 0,0c-14.226,10.656 -33.774,10.656 -48,0c0,0 0,0 0,0c0,-9.768 3.69,-10.475 9.41,-16c2.509,7.466 8.101,8 14.59,8c6.489,0 12.081,-0.534 14.59,-8Zm-14.59,-24c7.682,0 13.919,6.237 13.919,13.919c0,7.682 -6.237,13.919 -13.919,13.919c-7.682,0 -13.919,-6.237 -13.919,-13.919c0,-7.682 6.237,-13.919 13.919,-13.919Z" style="fill:#bfbfbf;"/></svg>